max v2;#N vpatcher 3 44 1508 974;#P origin 582 -815;#P window setfont "Sans Serif" 9.;#P comment 683 184 97 196617 annoying steps:;#P comment 401 201 68 196617 gabber steps:;#P comment 1331 344 42 196617 ? |;#P comment 1287 343 42 196617 ? |;#P comment 1243 342 42 196617 snClk |;#P comment 1199 342 42 196617 snDrm |;#P comment 1160 342 42 196617 bsDrm |;#P comment 1117 342 36 196617 bsClk |;#P comment 1074 342 36 196617 gbStp |;#P comment 1030 343 36 196617 bsClk |;#P comment 991 343 36 196617 bsClk |;#P comment 950 343 36 196617 gabbr |;#P comment 906 344 36 196617 lazr |;#P comment 861 343 36 196617 tonMt |;#P comment 821 343 36 196617 bsStp |;#P comment 783 343 36 196617 untl |;#P comment 743 344 36 196617 anny |;#P comment 1287 678 58 196617 real msec:;#P comment 896 186 58 196617 master volume:;#P user gain~ 900 215 24 100 158 0 1.071519 7.94321 10.;#P comment 992 319 58 196617 volumes:;#P user multiSlider 686 356 681 145 0. 127. 16 2921 47;#M frgb 107 107 107;#M brgb 255 255 255;#M rgb2 127 127 127;#P number 315 926 35 9 0 0 0 3 0 0 0 221 221 221 222 222 222 0 0 0;#P hidden newex 677 506 183 196617 unpack 0 0 0 0 0 0 0 0 0 0 0 0 0 0;#P hidden message 42 494 26 196617 800;#P comment 469 142 49 196617 msec:;#P comment 469 160 49 196617 ratio:;#P hidden button 252 74 15 0;#P hidden message 239 96 33 196617 1000;#P hidden flonum 270 133 57 9 0 0 0 3 0 0 0 221 221 221 222 222 222 0 0 0;#P number 510 141 47 9 0 0 0 3 0 0 0 221 221 221 222 222 222 0 0 0;#P hidden newex 279 108 51 196617 / 1000.;#P number 1248 675 38 9 0 0 0 3 0 0 0 221 221 221 222 222 222 0 0 0;#P hidden newex 1248 653 34 196617 timer;#P newex 28 542 34 196617 * 12.;#P newex 30 600 33 196617 / 50.;#P newex 27 578 33 196617 / 20.;#P hidden message 3 499 30 196617 1.25;#P window setfont "Sans Serif" 12.;#P comment 368 91 181 196620 master tempo hack (powmod 2006):;#P window setfont "Sans Serif" 9.;#P flonum 511 160 47 9 0 0 0 3 0 0 0 221 221 221 222 222 222 0 0 0;#P newex 96 679 33 196617 * -1.;#P hidden newex 136 650 27 196617 / 2.;#P hidden newex 79 648 45 196617 / 0.125;#P newex 105 620 33 196617 * -1.;#P flonum 94 592 42 9 0 0 0 3 0 0 0 221 221 221 222 222 222 0 0 0;#P newex 94 567 33 196617 / 10.;#P flonum 89 525 35 9 0 0 0 3 0 0 0 221 221 221 222 222 222 0 0 0;#P comment 678 51 58 196617 presets:;#P comment 410 349 58 196617 bass steps:;#P hidden message -102 902 14 196617 0;#P hidden flonum -752 1028 35 9 0 0 0 3 0 0 0 221 221 221 222 222 222 0 0 0;#P hidden message -411 938 14 196617 0;#P hidden newex -436 917 21 196617 r o;#P hidden message -436 938 23 196617 0.8;#P hidden newex -612 996 34 196617 *~ 1.;#P hidden newex -604 968 75 196617 phasor~ 0.025;#P hidden message -747 915 14 196617 1;#P hidden button -533 842 15 0;#P hidden newex -533 818 34 196617 edge~;#P hidden newex -533 767 35 196617 delta~;#P hidden newex -533 793 31 196617 <~ 0.;#P hidden newex -533 742 63 196617 phasor~ 0.5;#N counter 0 1 3;#X flags 0 0;#P hidden newobj -771 995 70 196617 counter 0 1 3;#P hidden newex -794 1061 33 196617 /~ 1.;#N standalone;#S creator !!ae;#S statusvisible 0;#S noloadbangdefeating 0;#S preffilename "Max 4 Preferences";#S overdrive 1;#S allwindowsactive 0;#S searchformissingfiles 1;#S usesearchpath 1;#S cantclosetoplevelpatchers 1;#S audiosupport 1;#S midisupport 1;#P hidden newobj -744 555 55 196617 standalone;#P hidden user gain~ 1090 946 24 100 158 0 1.071519 7.94321 10.;#P hidden newex 1086 1093 29 196617 dac~;#P hidden button 1248 629 15 0;#P hidden newex 1248 605 34 196617 edge~;#P hidden newex 1248 554 35 196617 delta~;#P hidden newex 1248 580 31 196617 <~ 0.;#P hidden newex 1195 570 21 196617 r o;#P hidden message 1198 593 29 196617 -0.9;#P hidden message 1141 522 64 196617 0.8 \, 0 5000;#P hidden newex 1160 615 41 196617 curve~;#P hidden newex 1088 925 33 196617 *~ 0.;#P hidden newex 1074 442 55 196617 log~ 2048;#P hidden newex 1074 466 35 196617 *~ 70;#P hidden newex 1074 568 79 196617 clip~ 50 10000;#P hidden newex 1074 495 30 196617 abs~;#P hidden newex 1074 543 45 196617 -~ 1200;#P hidden newex 1074 516 35 196617 *~ 32;#P hidden newex 1097 748 60 196617 cycle~ 180;#P hidden newex 827 806 35 196617 log~ 2;#P hidden newex 901 1014 33 196617 *~ 0.;#P hidden message 699 1101 14 196617 0;#P hidden newex 683 1060 21 196617 r o;#P hidden newex 683 1228 38 196617 -~ 0.5;#P hidden newex 683 1197 40 196617 *~ 14.;#P hidden newex 1329 1128 49 196617 pack 0 0.;#P hidden newex 1329 1061 27 196617 t b i;#P hidden newex 1368 1105 38 196617 / 500.;#P hidden message 1357 1062 14 196617 0;#P hidden button 1357 1044 15 0;#N counter;#X flags 0 0;#P hidden newobj 1329 1082 66 196617 counter;#P hidden newex 1329 1039 25 196617 iter;#P user multiSlider 679 198 206 143 0. 500. 14 2889 15;#M frgb 0 0 0;#M brgb 255 255 255;#M rgb2 127 127 127;#P hidden newex 1329 1149 70 196617 peek~ steppin;#P hidden newex 683 1260 74 196617 index~ steppin;#P hidden newex 1329 1171 99 196617 buffer~ steppin 100;#P hidden newex 683 1173 99 196617 phasor~ 0.714286;#P hidden newex 1078 22 21 196617 r o;#P hidden message 1082 50 14 196617 1;#P hidden message 231 236 14 196617 1;#N vpreset 3;#X append 1 1 311 54 1064 multiSlider list 0.234043 0.234043 0.265957 0.180851 0.095745 0.095745 0.106383 0.180851 \; 315 166 1068 multiSlider list 14 64 73 45 57 55 32 17 \; 316 55 886 multiSlider list 3199 3676 4364 1450 3464 4258 4576;#X append 1 1 2828 \;;#X append 2 1 311 54 1064 multiSlider list 0.234043 0.234043 0.265957 0.180851 0.095745 0.095745 0.106383 0.180851 \; 315 166 1068 multiSlider list 14 64 73 45 57 55 32 17 \; 316 55 886 multiSlider list 3199 3676 4364 1609 3464 4258 4576;#X append 2 1 2828 \;;#X append 3 1 311 54 1064 multiSlider list 0.234043 0.234043 0.265957 0.180851 0.095745 0.095745 0.106383 0.180851 \; 315 166 1068 multiSlider list 14 64 73 45 57 55 32 17 \; 316 55 886 multiSlider list 3199 3676 4364 1609 2457 2245 4576;#X append 3 1 2828 \;;#P preset 724 71 47 27;#P hidden message -357 590 30 196617 0.01;#P hidden newex -417 699 38 196617 cycle~;#P hidden newex -417 671 48 196617 *~ 1000;#P hidden newex -417 727 39 196617 *~ 0.2;#P hidden newex -417 611 60 196617 phasor~ 25;#P hidden newex -417 634 79 196617 sah~ 0.01;#B color 5;#P hidden newex -348 611 63 196617 phasor~ 15.;#P hidden newex -417 876 33 196617 *~ 0.;#P hidden newex -301 854 78 196617 cycle~ 0.0625;#P hidden user gain~ -417 750 24 100 158 0 1.071519 7.94321 10.;#P hidden newex -329 219 45 196617 select 0;#P hidden button -306 252 15 0;#P hidden newex 314 1041 21 196617 r o;#P hidden message 314 1060 23 196617 0.2;#P hidden newex 211 1098 38 196617 *~ 0.;#P hidden newex 239 1078 85 196617 cycle~ 0.015625;#P hidden newex 484 1054 60 196617 clip~ -1. 1.;#P hidden newex 647 951 93 196617 cycle~ 0.007812;#P hidden newex 658 979 30 196617 cos~;#P hidden message 44 717 14 196617 0;#P hidden newex -561 1144 33 196617 /~ 4.;#P hidden user number~ 199 336 307 351 9 3 3 2 0. 0. 0 0. 20 0.;#P hidden newex 814 922 21 196617 r o;#P hidden newex 793 1031 60 196617 clip~ -1. 1.;#P hidden newex 869 975 33 196617 *~ 0.;#P hidden newex 778 996 39 196617 +~ 0.8;#P hidden message 805 949 14 196617 0;#P hidden newex 778 974 80 196617 phasor~ -0.125;#P hidden newex 261 397 39 196617 /~ 32.;#P hidden newex -4 356 27 196617 * 2;#N counter 1 1 10;#X flags 0 0;#P hidden newobj -4 334 75 196617 counter 1 1 10;#P hidden message 44 311 14 196617 0;#P hidden newex 44 283 21 196617 r o;#P hidden newex 262 377 34 196617 *~ 2.;#P hidden newex 1889 664 21 196617 r o;#P hidden message 1892 687 29 196617 -0.9;#P hidden message 1817 687 73 196617 3000 \, 200 50;#P hidden newex 1854 709 41 196617 curve~;#P hidden newex 1238 102 74 196617 prepend freq 0;#P hidden newex 1238 250 61 196617 prepend Q 0;#P user multiSlider 886 55 171 96 20. 5000. 8 2889 15;#M frgb 0 0 0;#M brgb 255 255 255;#M rgb2 127 127 127;#P user multiSlider 1068 166 171 96 0. 100. 8 2889 15;#M frgb 0 0 0;#M brgb 255 255 255;#M rgb2 127 127 127;#P hidden newex 1216 456 39 196617 s cmds;#P hidden newex 1215 709 39 196617 r cmds;#P hidden newex 1238 422 73 196617 prepend gain 0;#P user multiSlider 1064 54 171 96 0. 1. 8 2889 15;#M frgb 0 0 0;#M brgb 255 255 255;#M rgb2 127 127 127;#P hidden newex 1175 703 39 196617 *~ 0.3;#P hidden newex 1175 674 35 196617 noise~;#P hidden newex 1181 740 105 196617 fffb~ 8;#B color 5;#P comment 1058 39 45 196617 gain:;#P comment 1068 151 26 196617 q:;#P comment 887 40 85 196617 freq:;#P hidden newex 1869 893 34 196617 gate~;#P hidden message 1789 774 14 196617 0;#P hidden message 1840 908 14 196617 1;#P hidden button 1796 754 15 0;#P hidden newex 1802 729 48 196617 delay 20;#P hidden newex 1841 773 21 196617 r o;#P hidden message 1841 794 14 196617 0;#P hidden newex 1870 928 39 196617 +~ 0.9;#P hidden message 1948 711 23 196617 0.5;#P hidden user gain~ 1870 952 24 100 158 0 1.071519 7.94321 10.;#P hidden newex 1872 1107 29 196617 dac~;#P hidden newex 1899 790 29 196617 +~ 1;#P hidden newex 1899 814 48 196617 clip~ 0 1;#P hidden newex 1899 765 39 196617 *~ -1.;#P hidden newex 1876 863 33 196617 *~ 0.;#P hidden newex 1876 839 60 196617 cycle~ 220;#P hidden newex 1894 737 69 196617 phasor~ 1.25;#P hidden button 1431 786 15 0;#P hidden message 1403 756 14 196617 1;#P hidden message 1406 781 14 196617 0;#P hidden newex 1437 761 48 196617 delay 80;#P hidden button 1446 718 15 0;#P hidden newex 1446 694 34 196617 edge~;#P hidden newex 1446 643 35 196617 delta~;#P hidden newex 1446 669 31 196617 <~ 0.;#P hidden newex 1280 776 34 196617 gate~;#P hidden toggle 1161 1033 15 0;#P hidden newex 1525 762 30 196617 abs~;#P hidden newex 1946 685 21 196617 r o;#P hidden newex 1524 638 55 196617 log~ 1024;#P hidden newex 1524 662 35 196617 *~ 96;#P hidden newex 1524 691 30 196617 abs~;#P hidden newex 1524 739 45 196617 -~ 8192;#P hidden newex 1524 712 35 196617 *~ 32;#P hidden newex 1351 671 39 196617 +~ 0.1;#P hidden newex 1316 570 55 196617 log~ 8192;#P hidden message 1190 848 23 196617 0.7;#P hidden message 1166 848 23 196617 0.8;#P hidden newex 1149 826 21 196617 r o;#P hidden message 1151 848 14 196617 1;#P hidden newex 1138 879 66 196617 comb~;#P hidden newex 1363 484 21 196617 r o;#P hidden newex 1263 845 34 196617 *~ 1.;#P hidden user gain~ 1263 927 24 100 158 0 1.071519 7.94321 10.;#P hidden newex 1263 1069 29 196617 dac~;#P hidden message 1367 512 23 196617 0.5;#P hidden newex 1337 750 54 196617 clip~ -1 1;#P hidden newex 1337 722 39 196617 *~ -1.;#P hidden newex 1263 816 33 196617 *~ 0.;#P hidden newex 1315 535 69 196617 phasor~ 1.25;#P hidden newex 1072 682 21 196617 r o;#P hidden flonum 936 793 35 9 0. 1. 3 3 0 0 0 221 221 221 222 222 222 0 0 0;#P hidden newex 969 846 45 196617 +~ 0.75;#P hidden newex 969 876 60 196617 clip~ -1. 1.;#P hidden newex 1021 930 33 196617 *~ 0.;#P hidden message 1072 733 14 196617 0;#P hidden newex 1017 752 65 196617 phasor~ -10;#P hidden user gain~ 1014 982 24 100 158 0 1.071519 7.94321 10.;#P hidden newex 1014 1127 29 196617 dac~;#P hidden message 976 700 14 196617 0;#P hidden newex 901 497 55 196617 log~ 2048;#P hidden newex 975 544 35 196617 *~ 70;#P hidden newex 975 646 73 196617 clip~ 0 10000;#P hidden newex 975 573 30 196617 abs~;#P hidden newex 975 621 45 196617 -~ 1200;#P hidden newex 975 594 35 196617 *~ 32;#P hidden newex 1044 828 29 196617 +~ 1;#P hidden newex 1044 852 48 196617 clip~ 0 1;#P hidden newex 1044 803 39 196617 *~ -1.;#P hidden newex 1021 901 33 196617 *~ 0.;#P hidden newex 1021 877 60 196617 cycle~ 180;#P hidden newex 906 687 69 196617 phasor~ 1.25;#P hidden newex -651 1061 34 196617 *~ 1.;#P hidden newex -508 592 21 196617 r o;#P hidden newex -674 1026 34 196617 *~ 1.;#P hidden newex -606 729 39 196617 +~ 0.3;#P hidden newex -606 759 60 196617 clip~ -1. 1.;#P hidden message -509 614 14 196617 0;#P hidden newex -558 635 68 196617 phasor~ -2.5;#P hidden user gain~ -697 1095 24 100 158 0 1.071519 7.94321 10.;#P hidden newex -697 1237 29 196617 dac~;#P hidden message -769 771 14 196617 0;#P hidden newex -740 609 43 196617 log~ 48;#P hidden newex -740 633 35 196617 *~ 32;#P hidden newex -724 836 73 196617 clip~ 0 20000;#P hidden newex -740 662 30 196617 abs~;#P hidden newex -724 811 45 196617 -~ 1200;#P hidden newex -740 683 35 196617 *~ 32;#P hidden newex -667 917 29 196617 +~ 1;#P hidden newex -667 941 48 196617 clip~ 0 1;#P hidden newex -667 892 39 196617 *~ -1.;#P hidden newex -690 990 33 196617 *~ 0.;#P hidden newex -690 966 60 196617 cycle~ 180;#P hidden newex -810 808 75 196617 phasor~ 0.125;#P hidden newex 825 859 39 196617 +~ 0.1;#P hidden newex 825 889 60 196617 clip~ -1. 1.;#P hidden newex -337 724 38 196617 cycle~;#P hidden newex -337 696 48 196617 *~ 1000;#P hidden newex -337 752 39 196617 *~ 0.2;#P hidden newex -337 636 60 196617 phasor~ 25;#P hidden newex -337 659 79 196617 sah~ 0.01;#B color 5;#P hidden newex -268 636 63 196617 phasor~ 15.;#P hidden message 217 218 14 196617 0;#P hidden newex 221 195 21 196617 r o;#P hidden newex 283 254 35 196617 -~ 0.5;#P hidden newex 283 311 45 196617 *~ 500.;#P hidden newex 283 223 39 196617 *~ 16.;#P hidden newex 283 286 79 196617 index~ newstep;#P hidden newex 283 199 75 196617 phasor~ 0.625;#P hidden newex 318 456 49 196617 pack 0 0.;#P hidden newex 318 389 27 196617 t b i;#P hidden newex 357 433 38 196617 / 500.;#P hidden message 346 390 14 196617 0;#P hidden button 346 372 15 0;#N counter;#X flags 0 0;#P hidden newobj 318 410 66 196617 counter;#P hidden newex 318 367 25 196617 iter;#P user multiSlider 472 198 206 143 0. 500. 16 2889 15;#M frgb 0 0 0;#M brgb 255 255 255;#M rgb2 127 127 127;#P hidden newex 318 477 75 196617 peek~ newstep;#P hidden newex 318 499 104 196617 buffer~ newstep 100;#P hidden newex -82 636 40 196617 key;#P hidden newex -39 701 21 196617 s o;#P hidden newex 877 943 33 196617 *~ 0.;#P hidden message 865 745 14 196617 0;#P hidden newex 873 765 60 196617 phasor~ 10;#P hidden user gain~ 874 1058 24 100 158 0 1.071519 7.94321 10.;#P hidden newex 874 1200 29 196617 dac~;#P hidden message 823 695 14 196617 0;#P hidden newex 831 533 43 196617 log~ 48;#P hidden newex 831 557 35 196617 *~ 96;#P hidden newex 831 659 73 196617 clip~ 0 10000;#P hidden newex 831 586 30 196617 abs~;#P hidden newex 831 634 45 196617 -~ 1200;#P hidden newex 831 607 35 196617 *~ 32;#P hidden newex 900 841 29 196617 +~ 1;#P hidden newex 900 865 48 196617 clip~ 0 1;#P hidden newex 900 816 39 196617 *~ -1.;#P hidden newex 877 914 33 196617 *~ 0.;#P hidden newex 877 890 60 196617 cycle~ 180;#P hidden newex 782 732 60 196617 phasor~ 10;#P hidden newex 537 852 21 196617 r o;#P hidden message 543 900 23 196617 0.5;#P hidden newex 257 795 21 196617 r o;#P hidden message 286 811 14 196617 0;#P hidden newex 485 1025 39 196617 +~ 0.9;#P hidden newex 483 980 33 196617 *~ 0.;#P hidden newex 506 949 81 196617 cycle~ 0.03125;#P hidden newex 470 603 21 196617 r o;#P hidden user gain~ 741 969 24 100 158 0 1.071519 7.94321 10.;#P hidden newex 741 1111 29 196617 dac~;#P hidden message 674 717 30 196617 0.75;#P hidden newex 703 555 43 196617 log~ 48;#P hidden newex 703 579 35 196617 *~ 32;#P hidden newex 703 681 73 196617 clip~ 0 10000;#P hidden newex 703 608 30 196617 abs~;#P hidden newex 703 656 45 196617 -~ 1200;#P hidden newex 703 629 35 196617 *~ 32;#P hidden newex 772 863 29 196617 +~ 1;#P hidden newex 772 887 48 196617 clip~ 0 1;#P hidden newex 772 838 39 196617 *~ -1.;#P hidden newex 749 936 33 196617 *~ 0.;#P hidden newex 749 912 60 196617 cycle~ 180;#P hidden newex 633 754 75 196617 phasor~ 0.125;#P hidden newex -251 234 48 196617 !/ 1000.;#N vpreset 117;#X append 1 2 3 1013 -422 flonum float 0. \; 7 343 470 multiSlider list 450 319 362 213 46 216 376 213 330 46 422 433 67 330 78 89 \; 17 1297 -451 toggle int 0 \; 19 1192 -422 gain~;#X append 1 2 list 78 10. \; 22 973 -422 number int 0 \; 34 1081 176 toggle int 1 \; 39 901 -36 number int 197 \; 45 1008 19 gain~ list 87 10. \; 52 972 211 gain~ list 87 10.;#X append 1 2 \; 77 978 444 gain~ list 82 10. \; 80 775 -337 gain~ list 92 10. \; 97 957 613 gain~ list 86 10. \; 101 435 -350 gain~ list 82 10. \; 109 527 -388 toggle int 1 \;;#X append 1 2 111 298 -217 flonum float 12.820513 \; 112 298 -291 flonum float 27. \; 113 349 -349 flonum float 1. \; 122 386 -127 flonum float 1. \; 157 969 741 gain~ list 83 10. \; 180 1058 874 gain~;#X append 1 2 list 99 10. \; 188 198 472 multiSlider list 245 135 254 28 28 35 39 319 270 177 39 110 92 78 57 32 \; 225 1095 -697 gain~ list 104 10. \; 247 982 1014 gain~ list 110;#X append 1 2 10. \; 253 793 936 flonum float 0. \; 261 927 1263 gain~ list 141 10. \; 278 1033 1161 toggle int 1 \; 295 952 1870 gain~ list 114 10. \; 311 54 1064 multiSlider list 0.234043 0.234043 0.265957;#X append 1 2 0.180851 0.095745 0.095745 0.106383 0.180851 \; 315 166 1068 multiSlider list 14 64 73 45 57 55 32 17 \; 316 55 886 multiSlider list 3199 3676 4364 1450 3464 4258 4576 2828 \; 335 336 199 number~ list 0.;#X append 1 2 \; 347 750 -417 gain~ list 92 10. \; 365 198 679 multiSlider list 500 500 500 465 500 369 404 500 475 465 475 500 266 465 \; 396 946 1090 gain~ list 104 10. \;;#X append 2 2 3 1013 -422 flonum float 0. \; 7 343 470 multiSlider list 450 319 362 213 46 216 376 213 330 46 422 433 67 330 78 89 \; 17 1297 -451 toggle int 0 \; 19 1192 -422 gain~;#X append 2 2 list 88 10. \; 22 973 -422 number int 0 \; 34 1081 176 toggle int 1 \; 39 901 -36 number int 198 \; 45 1008 19 gain~ list 103 10. \; 52 972 211 gain~ list 104 10.;#X append 2 2 \; 77 978 444 gain~ list 80 10. \; 253 793 936 flonum float 0. \; 80 775 -337 gain~ list 106 10. \; 97 957 613 gain~ list 95 10. \; 335 336 199 number~ list 0. \; 101 435 -350;#X append 2 2 gain~ list 109 10. \; 109 527 -388 toggle int 1 \; 111 298 -217 flonum float 18.181818 \; 112 298 -291 flonum float 21. \; 113 349 -349 flonum float 1. \; 122 386 -127 flonum float 1. \;;#X append 2 2 157 969 741 gain~ list 90 10. \; 180 1058 874 gain~ list 113 10. \;;#X append 3 2 3 1013 -422 flonum float 0. \; 7 343 470 multiSlider list 450 319 362 213 46 216 376 213 330 46 422 433 67 330 78 89 \; 17 1297 -451 toggle int 1 \; 19 1192 -422 gain~;#X append 3 2 list 88 10. \; 22 973 -422 number int 0 \; 34 1081 176 toggle int 1 \; 39 901 -36 number int 197 \; 45 1008 19 gain~ list 106 10. \; 52 972 211 gain~ list 104 10.;#X append 3 2 \; 77 978 444 gain~ list 80 10. \; 253 793 936 flonum float 0. \; 80 775 -337 gain~ list 106 10. \; 97 957 613 gain~ list 95 10. \; 335 336 199 number~ list 0. \; 101 435 -350;#X append 3 2 gain~ list 109 10. \; 109 527 -388 toggle int 1 \; 111 298 -217 flonum float 9.708738 \; 112 298 -291 flonum float 32. \; 113 349 -349 flonum float 1. \; 122 386 -127 flonum float 1. \;;#X append 3 2 157 969 741 gain~ list 90 10. \; 180 1058 874 gain~ list 108 10. \; 188 198 472 multiSlider list 245 135 254 284 85 319 39 319 270 177 39 110 92 18 25 0 \; 225 1095 -697;#X append 3 2 gain~ list 0 10. \;;#X append 4 2 3 1013 -422 flonum float 0. \; 7 343 470 multiSlider list 450 319 362 213 46 216 376 213 330 46 422 433 67 330 78 89 \; 17 1297 -451 toggle int 1 \; 19 1192 -422 gain~;#X append 4 2 list 88 10. \; 22 973 -422 number int 0 \; 34 1081 176 toggle int 1 \; 39 901 -36 number int 197 \; 45 1008 19 gain~ list 106 10. \; 52 972 211 gain~ list 104 10.;#X append 4 2 \; 77 978 444 gain~ list 80 10. \; 253 793 936 flonum float 0. \; 80 775 -337 gain~ list 106 10. \; 97 957 613 gain~ list 95 10. \; 335 336 199 number~ list 0. \; 101 435 -350;#X append 4 2 gain~ list 109 10. \; 109 527 -388 toggle int 1 \; 111 298 -217 flonum float 13.69863 \; 112 298 -291 flonum float 26. \; 113 349 -349 flonum float 1. \; 122 386 -127 flonum float 1. \;;#X append 4 2 157 969 741 gain~ list 90 10. \; 180 1058 874 gain~ list 108 10. \; 188 198 472 multiSlider list 245 135 254 28 28 35 39 319 270 177 39 110 92 78 57 32 \; 225 1095 -697;#X append 4 2 gain~ list 0 10. \;;#X append 5 2 3 1013 -422 flonum float 0. \; 7 343 470 multiSlider list 450 319 362 213 46 216 376 213 330 46 422 433 67 330 78 89 \; 17 1297 -451 toggle int 0 \; 19 1192 -422 gain~;#X append 5 2 list 88 10. \; 22 973 -422 number int 0 \; 34 1081 176 toggle int 1 \; 39 901 -36 number int 198 \; 45 1008 19 gain~ list 103 10. \; 52 972 211 gain~ list 104 10.;#X append 5 2 \; 77 978 444 gain~ list 80 10. \; 80 775 -337 gain~ list 106 10. \; 97 957 613 gain~ list 95 10. \; 335 336 199 number~ list 0. \; 101 435 -350 gain~ list 109 10. \;;#X append 5 2 109 527 -388 toggle int 1 \; 111 298 -217 flonum float 37.037037 \; 112 298 -291 flonum float 9. \; 113 349 -349 flonum float 1. \; 122 386 -127 flonum float 1. \; 157 969 741 gain~ list;#X append 5 2 90 10. \; 180 1058 874 gain~ list 0 10. \; 188 198 472 multiSlider list 245 135 254 28 28 35 39 319 270 177 39 110 92 78 57 32 \; 225 1095 -697 gain~ list 0 10.;#X append 5 2 \;;#X append 6 2 3 1013 -422 flonum float 0. \; 7 343 470 multiSlider list 450 319 362 213 46 216 376 213 330 46 422 433 67 330 78 89 \; 17 1297 -451 toggle int 0 \; 19 1192 -422 gain~;#X append 6 2 list 97 10. \; 22 973 -422 number int 0 \; 34 1081 176 toggle int 1 \; 39 901 -36 number int 198 \; 45 1008 19 gain~ list 112 10. \; 52 972 211 gain~ list 99 10.;#X append 6 2 \; 77 978 444 gain~ list 99 10. \; 80 775 -337 gain~ list 106 10. \; 97 957 613 gain~ list 95 10. \; 335 336 199 number~ list 0. \; 101 435 -350 gain~ list 109 10. \;;#X append 6 2 109 527 -388 toggle int 1 \; 111 298 -217 flonum float 23.255814 \; 112 298 -291 flonum float 17. \; 113 349 -349 flonum float 0.07 \; 122 386 -127 flonum float 1. \; 157 969 741 gain~ list;#X append 6 2 90 10. \; 180 1058 874 gain~ list 103 10. \; 188 198 472 multiSlider list 245 135 254 28 28 35 39 319 270 177 39 110 92 78 57 32 \; 225 1095 -697 gain~ list 104 10.;#X append 6 2 \; 253 793 936 flonum float 0. \;;#X append 7 2 3 1013 -422 flonum float 0. \; 7 343 470 multiSlider list 450 319 362 213 46 216 376 213 330 46 422 433 67 330 78 89 \; 17 1297 -451 toggle int 0 \; 19 1192 -422 gain~;#X append 7 2 list 97 10. \; 22 973 -422 number int 0 \; 34 1081 176 toggle int 1 \; 39 901 -36 number int 197 \; 45 1008 19 gain~ list 112 10. \; 52 972 211 gain~ list 98 10.;#X append 7 2 \; 77 978 444 gain~ list 92 10. \; 80 775 -337 gain~ list 106 10. \; 97 957 613 gain~ list 95 10. \; 335 336 199 number~ list 0. \; 101 435 -350 gain~ list 109 10. \;;#X append 7 2 109 527 -388 toggle int 1 \; 111 298 -217 flonum float 7.692307 \; 112 298 -291 flonum float 36. \; 113 349 -349 flonum float 0.07 \; 122 386 -127 flonum float 1. \; 157 969 741 gain~ list;#X append 7 2 90 10. \; 180 1058 874 gain~ list 103 10. \; 188 198 472 multiSlider list 245 135 254 28 28 35 39 319 270 177 39 110 92 78 57 32 \; 225 1095 -697 gain~ list 104 10.;#X append 7 2 \; 247 982 1014 gain~ list 113 10. \; 253 793 936 flonum float 0. \; 261 927 1263 gain~ list 101 10. \;;#X append 104 2 3 1013 -422 flonum float 0. \; 7 343 470 multiSlider list 450 319 362 213 46 216 376 213 330 46 422 433 67 330 78 89 \; 17 1297 -451 toggle int 0 \; 19 1192 -422 gain~;#X append 104 2 list 90 10. \; 22 973 -422 number int 0 \; 34 1081 176 toggle int 1 \; 39 901 -36 number int 198 \; 45 1008 19 gain~ list 87 10. \; 52 972 211 gain~ list 94 10.;#X append 104 2 \; 77 978 444 gain~ list 91 10. \; 80 775 -337 gain~ list 106 10. \; 97 957 613 gain~ list 87 10. \; 101 435 -350 gain~ list 82 10. \; 109 527 -388 toggle int 1 \;;#X append 104 2 111 298 -217 flonum float 7.407407 \; 112 298 -291 flonum float 24. \; 113 349 -349 flonum float -5. \; 122 386 -127 flonum float 1. \; 157 969 741 gain~ list 90 10. \; 180 1058 874 gain~;#X append 104 2 list 98 10. \; 188 198 472 multiSlider list 245 135 254 28 28 35 39 319 270 177 39 110 92 78 57 32 \; 225 1095 -697 gain~ list 104 10. \; 247 982 1014 gain~ list 119;#X append 104 2 10. \; 253 793 936 flonum float 0. \; 261 927 1263 gain~ list 141 10. \; 278 1033 1161 toggle int 1 \; 295 952 1870 gain~ list 114 10. \; 311 54 1064 multiSlider list 0.234043 0.234043 0.265957;#X append 104 2 0.180851 0.095745 0.095745 0.106383 0.180851 \; 315 166 1068 multiSlider list 14 64 73 45 57 55 32 17 \; 316 55 886 multiSlider list 3199 3676 4364 1450 3464 4258 4576 2828 \; 335 336 199 number~ list 0.;#X append 104 2 \;;#X append 112 2 3 1013 -422 flonum float 0. \; 7 343 470 multiSlider list 450 319 362 213 46 216 376 213 330 46 422 433 67 330 78 89 \; 17 1297 -451 toggle int 0 \; 19 1192 -422 gain~;#X append 112 2 list 78 10. \; 22 973 -422 number int 0 \; 34 1081 176 toggle int 1 \; 39 901 -36 number int 209 \; 45 1008 19 gain~ list 87 10. \; 52 972 211 gain~ list 87 10.;#X append 112 2 \; 77 978 444 gain~ list 82 10. \; 80 775 -337 gain~ list 92 10. \; 97 957 613 gain~ list 86 10. \; 101 435 -350 gain~ list 82 10. \; 109 527 -388 toggle int 1 \;;#X append 112 2 111 298 -217 flonum float 28.571428 \; 112 298 -291 flonum float 38. \; 113 349 -349 flonum float 1. \; 122 386 -127 flonum float 1. \; 157 969 741 gain~ list 83 10. \; 180 1058 874 gain~;#X append 112 2 list 98 10. \; 188 198 472 multiSlider list 245 135 254 28 28 35 39 319 270 177 39 110 92 78 57 32 \; 225 1095 -697 gain~ list 104 10. \; 247 982 1014 gain~ list 113;#X append 112 2 10. \; 253 793 936 flonum float 0. \; 261 927 1263 gain~ list 141 10. \; 278 1033 1161 toggle int 1 \; 295 952 1870 gain~ list 114 10. \; 311 54 1064 multiSlider list 0.234043 0.234043 0.265957;#X append 112 2 0.180851 0.095745 0.095745 0.106383 0.180851 \; 315 166 1068 multiSlider list 14 64 73 45 57 55 32 17 \; 316 55 886 multiSlider list 3199 3676 4364 1450 3464 4258 4576 2828 \; 335 336 199 number~ list 0.;#X append 112 2 \; 347 750 -417 gain~ list 92 10. \;;#X append 113 2 3 1013 -422 flonum float 0. \; 7 343 470 multiSlider list 450 319 362 213 46 216 376 213 330 46 422 433 67 330 78 89 \; 17 1297 -451 toggle int 0 \; 19 1192 -422 gain~;#X append 113 2 list 78 10. \; 22 973 -422 number int 0 \; 34 1081 176 toggle int 1 \; 39 901 -36 number int 197 \; 45 1008 19 gain~ list 87 10. \; 52 972 211 gain~ list 87 10.;#X append 113 2 \; 77 978 444 gain~ list 82 10. \; 80 775 -337 gain~ list 92 10. \; 97 957 613 gain~ list 86 10. \; 101 435 -350 gain~ list 82 10. \; 109 527 -388 toggle int 1 \;;#X append 113 2 111 298 -217 flonum float 28.571428 \; 112 298 -291 flonum float 22. \; 113 349 -349 flonum float 1. \; 122 386 -127 flonum float 1. \; 157 969 741 gain~ list 83 10. \; 180 1058 874 gain~;#X append 113 2 list 98 10. \; 188 198 472 multiSlider list 245 135 254 28 28 35 39 319 270 177 39 110 92 78 57 32 \; 225 1095 -697 gain~ list 104 10. \; 247 982 1014 gain~ list 115;#X append 113 2 10. \; 253 793 936 flonum float 0. \; 261 927 1263 gain~ list 141 10. \; 278 1033 1161 toggle int 1 \; 295 952 1870 gain~ list 114 10. \; 311 54 1064 multiSlider list 0.234043 0.234043 0.265957;#X append 113 2 0.180851 0.095745 0.095745 0.106383 0.180851 \; 315 166 1068 multiSlider list 14 64 73 45 57 55 32 17 \; 316 55 886 multiSlider list 3199 3676 4364 1450 3464 4258 4576 2828 \; 335 336 199 number~ list 0.;#X append 113 2 \; 347 750 -417 gain~ list 92 10. \;;#X append 114 2 3 1013 -422 flonum float 0. \; 7 343 470 multiSlider list 450 319 362 213 46 216 376 213 330 46 422 433 67 330 78 89 \; 17 1297 -451 toggle int 0 \; 19 1192 -422 gain~;#X append 114 2 list 78 10. \; 22 973 -422 number int 0 \; 34 1081 176 toggle int 1 \; 39 901 -36 number int 198 \; 45 1008 19 gain~ list 87 10. \; 52 972 211 gain~ list 87 10.;#X append 114 2 \; 77 978 444 gain~ list 82 10. \; 80 775 -337 gain~ list 92 10. \; 97 957 613 gain~ list 86 10. \; 101 435 -350 gain~ list 82 10. \; 109 527 -388 toggle int 1 \;;#X append 114 2 111 298 -217 flonum float 4.081633 \; 112 298 -291 flonum float 40. \; 113 349 -349 flonum float -5. \; 122 386 -127 flonum float 1. \; 157 969 741 gain~ list 83 10. \; 180 1058 874 gain~;#X append 114 2 list 97 10. \; 188 198 472 multiSlider list 245 135 254 28 28 35 39 319 270 177 39 110 92 78 57 32 \; 225 1095 -697 gain~ list 104 10. \; 247 982 1014 gain~ list 115;#X append 114 2 10. \; 253 793 936 flonum float 0. \; 261 927 1263 gain~ list 141 10. \; 278 1033 1161 toggle int 1 \; 295 952 1870 gain~ list 114 10. \; 311 54 1064 multiSlider list 0.234043 0.234043 0.265957;#X append 114 2 0.180851 0.095745 0.095745 0.106383 0.180851 \; 315 166 1068 multiSlider list 14 64 73 45 57 55 32 17 \; 316 55 886 multiSlider list 3199 3676 4364 1450 3464 4258 4576 2828 \; 335 336 199 number~ list 0.;#X append 114 2 \; 347 750 -417 gain~ list 92 10. \;;#X append 115 2 3 1013 -422 flonum float 0. \; 7 343 470 multiSlider list 450 319 362 213 46 216 376 213 330 46 422 433 67 330 78 89 \; 17 1297 -451 toggle int 0 \; 19 1192 -422 gain~;#X append 115 2 list 97 10. \; 22 973 -422 number int 0 \; 34 1081 176 toggle int 1 \; 39 901 -36 number int 197 \; 45 1008 19 gain~ list 87 10. \; 52 972 211 gain~ list 94 10.;#X append 115 2 \; 77 978 444 gain~ list 91 10. \; 80 775 -337 gain~ list 106 10. \; 97 957 613 gain~ list 87 10. \; 101 435 -350 gain~ list 82 10. \; 109 527 -388 toggle int 1 \;;#X append 115 2 111 298 -217 flonum float 28.571428 \; 112 298 -291 flonum float 22. \; 113 349 -349 flonum float -5. \; 122 386 -127 flonum float 1. \; 157 969 741 gain~ list 90 10. \; 180 1058 874 gain~;#X append 115 2 list 98 10. \; 188 198 472 multiSlider list 245 135 254 28 28 35 39 319 270 177 39 110 92 78 57 32 \; 225 1095 -697 gain~ list 104 10. \; 247 982 1014 gain~ list 119;#X append 115 2 10. \; 253 793 936 flonum float 0. \; 261 927 1263 gain~ list 141 10. \; 278 1033 1161 toggle int 1 \; 295 952 1870 gain~ list 114 10. \; 311 54 1064 multiSlider list 0.234043 0.234043 0.265957;#X append 115 2 0.180851 0.095745 0.095745 0.106383 0.180851 \; 315 166 1068 multiSlider list 14 64 73 45 57 55 32 17 \; 316 55 886 multiSlider list 3199 3676 4364 1450 3464 4258 4576 2828 \; 335 336 199 number~ list 0.;#X append 115 2 \;;#X append 116 2 3 1013 -422 flonum float 0. \; 7 343 470 multiSlider list 450 319 362 213 46 216 376 213 330 46 422 433 67 330 78 89 \; 17 1297 -451 toggle int 0 \; 19 1192 -422 gain~;#X append 116 2 list 97 10. \; 22 973 -422 number int 0 \; 34 1081 176 toggle int 1 \; 39 901 -36 number int 197 \; 45 1008 19 gain~ list 112 10. \; 52 972 211 gain~ list 98 10.;#X append 116 2 \; 77 978 444 gain~ list 92 10. \; 80 775 -337 gain~ list 106 10. \; 97 957 613 gain~ list 87 10. \; 101 435 -350 gain~ list 82 10. \; 109 527 -388 toggle int 1 \;;#X append 116 2 111 298 -217 flonum float 28.571428 \; 112 298 -291 flonum float 30. \; 113 349 -349 flonum float -5. \; 122 386 -127 flonum float 1. \; 157 969 741 gain~ list 90 10. \; 180 1058 874 gain~;#X append 116 2 list 98 10. \; 188 198 472 multiSlider list 245 135 254 28 28 35 39 319 270 177 39 110 92 78 57 32 \; 225 1095 -697 gain~ list 104 10. \; 247 982 1014 gain~ list 119;#X append 116 2 10. \; 253 793 936 flonum float 0. \; 261 927 1263 gain~ list 141 10. \; 278 1033 1161 toggle int 1 \; 295 952 1870 gain~ list 114 10. \; 311 54 1064 multiSlider list 0.234043 0.234043 0.265957;#X append 116 2 0.180851 0.095745 0.095745 0.106383 0.180851 \; 315 166 1068 multiSlider list 14 64 73 45 57 55 32 17 \; 316 55 886 multiSlider list 3199 3676 4364 1450 3464 4258 4576 2828 \; 335 336 199 number~ list 0.;#X append 116 2 \;;#X append 117 2 3 1013 -422 flonum float 0. \; 7 343 470 multiSlider list 450 319 362 213 46 216 376 213 330 46 422 433 67 330 78 89 \; 17 1297 -451 toggle int 0 \; 19 1192 -422 gain~;#X append 117 2 list 78 10. \; 22 973 -422 number int 0 \; 34 1081 176 toggle int 1 \; 39 901 -36 number int 196 \; 45 1008 19 gain~ list 87 10. \; 52 972 211 gain~ list 87 10.;#X append 117 2 \; 77 978 444 gain~ list 82 10. \; 80 775 -337 gain~ list 92 10. \; 97 957 613 gain~ list 86 10. \; 101 435 -350 gain~ list 82 10. \; 109 527 -388 toggle int 1 \;;#X append 117 2 111 298 -217 flonum float 28.571428 \; 112 298 -291 flonum float 14. \; 113 349 -349 flonum float 1. \; 122 386 -127 flonum float 1. \; 157 969 741 gain~ list 83 10. \; 180 1058 874 gain~;#X append 117 2 list 98 10. \; 188 198 472 multiSlider list 245 135 254 28 28 35 39 319 270 177 39 110 92 78 57 32 \; 225 1095 -697 gain~ list 104 10. \; 247 982 1014 gain~ list 113;#X append 117 2 10. \; 253 793 936 flonum float 0. \; 261 927 1263 gain~ list 141 10. \; 278 1033 1161 toggle int 1 \; 295 952 1870 gain~ list 114 10. \; 311 54 1064 multiSlider list 0.234043 0.234043 0.265957;#X append 117 2 0.180851 0.095745 0.095745 0.106383 0.180851 \; 315 166 1068 multiSlider list 14 64 73 45 57 55 32 17 \; 316 55 886 multiSlider list 3199 3676 4364 1450 3464 4258 4576 2828 \; 335 336 199 number~ list 0.;#X append 117 2 \; 347 750 -417 gain~ list 92 10. \;;#P preset 580 70 139 102;#N counter 1 1 40;#X flags 0 0;#P hidden newobj -368 193 75 196617 counter 1 1 40;#P hidden message -320 170 14 196617 0;#P hidden newex -320 142 21 196617 r o;#P hidden newex -498 262 39 196617 +~ 0.5;#P hidden message -423 214 23 196617 0.5;#P hidden newex -423 192 21 196617 r o;#P hidden newex -521 290 33 196617 *~ 0.;#P hidden newex -498 236 85 196617 phasor~ 0.03125;#P hidden newex -427 431 33 196617 *~ 0.;#P hidden message -500 314 49 196617 1 \, 0 300;#P hidden newex -500 334 30 196617 line~;#P hidden newex -523 386 33 196617 *~ 0.;#P hidden newex -523 362 60 196617 cycle~ 412;#P hidden message -217 256 50 196617 7777777;#P hidden newex -291 335 47 196617 t b f;#P hidden newex -217 320 38 196617 t b f;#P hidden message -127 282 14 196617 1;#P hidden comment -175 388 48 196617 duck time;#P hidden flonum -127 386 35 9 0 0 0 3 0 0 0 221 221 221 222 222 222 0 0 0;#P hidden message -390 405 26 196617 111;#P hidden message -153 282 17 196617 8.;#P hidden newex -153 256 45 196617 loadbang;#P hidden message -349 314 14 196617 1;#P hidden newex -217 351 38 196617 + 100.;#P hidden newex -291 374 85 196617 pack setloop 0. 0.;#P hidden newex -390 282 45 196617 loadbang;#P hidden comment -214 285 53 196617 loop length;#P hidden flonum -349 349 35 9 0 0 0 3 0 0 0 221 221 221 222 222 222 0 0 0;#P hidden flonum -291 298 58 9 0. 0 1 3 0 0 0 221 221 221 222 222 222 0 0 0;#P hidden flonum -217 298 58 9 0. 0 1 3 0 0 0 221 221 221 222 222 222 0 0 0;#P hidden message -384 314 35 196617 loop 1;#P hidden toggle -388 527 22 0;#P hidden message -433 314 49 196617 startloop;#P hidden newex -349 374 39 196617 sig~ 1.;#P message 942 279 41 196617 replace;#P hidden newex -453 496 89 196617 buffer~ spool 500;#P hidden newex -349 569 29 196617 dac~;#P hidden newex -349 402 100 196617 grooveduck spool 1;#P hidden comment -289 285 53 196617 loop start;#P hidden user gain~ -350 435 24 100 158 0 1.071519 7.94321 10.;#P hidden newex -337 902 50 196617 *~ 0.;#P hidden newex 10 975 33 196617 *~ 0.;#P hidden newex -134 923 69 196617 cycle~ 0.125;#P hidden user gain~ 613 957 24 100 158 0 1.071519 7.94321 10.;#P hidden newex 613 1104 29 196617 dac~;#P hidden message -153 673 14 196617 0;#P hidden message 546 710 14 196617 0;#P hidden newex 575 548 43 196617 log~ 32;#P hidden newex 575 572 35 196617 *~ 32;#P hidden newex 575 674 73 196617 clip~ 0 10000;#P hidden newex 575 601 30 196617 abs~;#P hidden newex 575 649 45 196617 -~ 1200;#P hidden newex 575 622 35 196617 *~ 32;#P hidden newex 644 856 29 196617 +~ 1;#P hidden newex 644 880 48 196617 clip~ 0 1;#P hidden newex 644 831 39 196617 *~ -1.;#P hidden newex 621 929 33 196617 *~ 0.;#P hidden newex 621 905 60 196617 cycle~ 220;#P hidden newex 505 747 75 196617 phasor~ 0.125;#P hidden message 370 727 23 196617 0.5;#P hidden user gain~ -337 775 24 100 158 0 1.071519 7.94321 10.;#P hidden newex -82 660 51 196617 select 32;#P hidden newex -373 930 30 196617 dac~;#P hidden user gain~ 444 978 24 100 158 0 1.071519 7.94321 10.;#P hidden newex 445 1134 29 196617 dac~;#P hidden newex 399 565 35 196617 log~ 4;#P hidden newex 399 589 35 196617 *~ 32;#P hidden newex 399 691 73 196617 clip~ 0 10000;#P hidden newex 399 618 30 196617 abs~;#P hidden newex 399 666 45 196617 -~ 1200;#P hidden newex 399 639 35 196617 *~ 32;#P hidden newex 468 873 29 196617 +~ 1;#P hidden newex 468 897 48 196617 clip~ 0 1;#P hidden newex 468 848 39 196617 *~ -1.;#P hidden newex 445 946 33 196617 *~ 0.;#P hidden newex 445 922 60 196617 cycle~ 220;#P hidden newex 329 764 55 196617 phasor~ 5.;#P hidden newex 232 558 35 196617 log~ 4;#P hidden newex 232 582 35 196617 *~ 32;#P hidden newex 232 684 73 196617 clip~ 0 10000;#P hidden newex 232 611 30 196617 abs~;#P hidden newex 232 659 45 196617 -~ 1200;#P hidden newex 232 632 35 196617 *~ 32;#P hidden message -69 709 14 196617 0;#P hidden button -578 936 15 0;#P hidden newex -578 912 34 196617 edge~;#P hidden newex -578 861 35 196617 delta~;#P hidden newex -578 887 31 196617 <~ 0.;#P hidden user gain~ 211 972 24 100 158 0 1.071519 7.94321 10.;#P hidden message 31 872 49 196617 1 \, 0 100;#P hidden newex 31 892 30 196617 line~;#P hidden newex 8 944 33 196617 *~ 0.;#P hidden newex 8 920 60 196617 cycle~ 206;#P hidden newex 125 927 45 196617 loadbang;#P hidden message 125 956 20 196617 99;#P hidden user gain~ 19 1008 24 100 158 0 1.071519 7.94321 10.;#P hidden newex 234 865 29 196617 +~ 1;#P hidden newex 234 889 48 196617 clip~ 0 1;#P hidden newex 234 840 39 196617 *~ -1.;#P hidden newex 211 938 33 196617 *~ 0.;#P hidden newex 211 914 60 196617 cycle~ 220;#P hidden number -36 901 35 9 0 0 0 3 0 0 0 221 221 221 222 222 222 0 0 0;#P hidden newex -36 877 33 196617 timer;#P hidden button -36 856 15 0;#P hidden newex -36 832 34 196617 edge~;#P hidden newex -36 781 35 196617 delta~;#P hidden toggle 176 1081 15 0;#P hidden newex 211 1131 29 196617 dac~;#P hidden newex -36 807 31 196617 <~ 0.;#P hidden newex 103 746 55 196617 phasor~ 5.;#P hidden newex -500 890 33 196617 / 16.;#N counter 0 1 64;#X flags 0 0;#P hidden newobj -500 860 75 196617 counter 0 1 64;#P hidden newex -498 990 35 196617 log~ 4;#P hidden newex -498 1014 35 196617 *~ 32;#P hidden newex -498 967 75 196617 phasor~ 0.125;#P hidden message -393 1216 26 196617 100;#P hidden newex -393 1196 45 196617 loadbang;#P hidden newex -422 1087 38 196617 -~ 0.5;#P hidden number -422 973 35 9 0 0 0 3 0 0 0 221 221 221 222 222 222 0 0 0;#P hidden newex -422 992 38 196617 / 240.;#P hidden newex -422 1144 45 196617 *~ 500.;#P hidden user gain~ -422 1192 24 100 158 0 1.071519 7.94321 10.;#P hidden newex -423 1168 59 196617 cycle~ 100;#P hidden toggle -451 1297 26 0;#P hidden newex -422 1324 29 196617 dac~;#P hidden newex -422 1056 39 196617 *~ 16.;#P hidden newex -346 1285 49 196617 pack 0 0.;#P hidden newex -346 1218 27 196617 t b i;#P hidden newex -307 1262 38 196617 / 500.;#P hidden message -318 1219 14 196617 0;#P hidden button -318 1201 15 0;#N counter;#X flags 0 0;#P hidden newobj -346 1239 66 196617 counter;#P hidden newex -346 1196 25 196617 iter;#P user multiSlider 470 343 206 143 0. 500. 16 2889 15;#M frgb 0 0 0;#M brgb 255 255 255;#M rgb2 127 127 127;#P hidden newex -346 1306 75 196617 peek~ thesteps;#P hidden newex -422 1119 79 196617 index~ thesteps;#P hidden newex -346 1328 104 196617 buffer~ thesteps 100;#P hidden flonum -422 1013 35 9 0 0 0 3 0 0 0 221 221 221 222 222 222 0 0 0;#P hidden newex -422 1032 68 196617 phasor~ 0.25;#P comment 984 280 190 196617 <<select short aif then press spacebar;#P comment 697 344 36 196617 samp |;#P connect 417 0 211 0;#P hidden connect 398 0 211 0;#P hidden connect 20 0 398 0;#P hidden connect 404 0 399 0;#P hidden connect 399 0 398 1;#P hidden connect 231 0 223 0;#P hidden connect 399 0 411 0;#P hidden connect 79 0 405 0;#P hidden connect 223 0 211 1;#P hidden connect 211 0 222 0;#P hidden connect 222 0 221 0;#P hidden connect 221 0 219 0;#P hidden connect 219 0 217 0;#P hidden connect 405 0 399 3;#P hidden connect 217 0 218 0;#P hidden connect 218 0 220 0;#P hidden connect 232 0 225 0;#P hidden connect 438 2 225 0;#P hidden connect 225 0 224 0;#P hidden connect 220 0 212 0;#P hidden connect 212 0 213 0;#P hidden connect 225 0 224 1;#P hidden connect 213 0 230 0;#P hidden connect 211 0 214 0;#P hidden connect 214 0 216 0;#P hidden connect 216 0 215 0;#P hidden connect 215 0 213 1;#P hidden connect 407 0 232 0;#P hidden connect 228 0 230 1;#P hidden connect 26 0 232 1;#P hidden connect 230 0 407 0;#P hidden connect 226 0 229 0;#P hidden connect 229 0 228 0;#P connect 426 0 406 0;#P hidden connect 406 0 407 1;#P hidden connect 26 0 54 0;#P hidden connect 54 0 53 0;#P hidden connect 53 0 55 0;#P hidden connect 55 0 56 0;#P hidden connect 20 0 336 0;#P hidden connect 408 0 406 1;#P hidden connect 400 0 402 0;#P hidden connect 402 0 401 0;#P hidden connect 401 0 403 0;#P hidden connect 403 0 404 0;#P hidden connect 128 0 129 0;#P hidden connect 132 0 134 0;#P hidden connect 231 0 227 0;#P hidden connect 37 0 131 0;#P hidden connect 131 0 130 0;#P hidden connect 130 0 129 1;#P hidden connect 227 0 226 1;#P hidden connect 56 0 29 0;#P hidden connect 29 0 30 0;#P hidden connect 133 0 137 0;#P hidden connect 137 0 134 1;#P connect 417 0 26 0;#P hidden connect 26 0 28 0;#P hidden connect 28 0 27 0;#P hidden connect 57 0 400 1;#P hidden connect 30 0 28 1;#P hidden connect 106 0 105 0;#P hidden connect 405 0 29 3;#P hidden connect 409 0 408 0;#P hidden connect 115 0 108 0;#P hidden connect 410 0 26 1;#P hidden connect 103 0 132 0;#P hidden connect 135 0 136 0;#P hidden connect 136 0 133 1;#P hidden connect 336 0 18 0;#P hidden connect 22 0 21 0;#P hidden connect 21 0 3 0;#P hidden connect 3 0 2 0;#P hidden connect 27 0 2 0;#P hidden connect 2 0 15 0;#P hidden connect 15 0 23 0;#P hidden connect 23 0 5 0;#P hidden connect 5 0 20 0;#P hidden connect 18 0 19 0;#P hidden connect 25 0 19 0;#P hidden connect 438 3 19 0;#P hidden connect 19 0 16 0;#P hidden connect 17 0 16 0;#P hidden connect 352 0 351 0;#P hidden connect 351 0 354 0;#P hidden connect 354 0 355 0;#P hidden connect 355 0 353 0;#P hidden connect 438 1 347 0;#P hidden connect 353 0 347 0;#P hidden connect 80 1 347 0;#P hidden connect 347 0 349 0;#P hidden connect 409 0 410 0;#P hidden connect 129 0 132 1;#P hidden connect 19 0 16 1;#P hidden connect 348 0 349 1;#P hidden connect 24 0 25 0;#P hidden connect 115 0 121 0;#P hidden connect 115 0 110 0;#P hidden connect 349 0 78 0;#P hidden connect 37 0 140 0;#P hidden connect 356 0 352 1;#P hidden connect 57 0 2 1;#P hidden connect 345 0 356 0;#P hidden connect 100 0 78 1;#P hidden connect 134 0 101 0;#P hidden connect 121 0 101 0;#P hidden connect 438 0 101 0;#P hidden connect 115 0 118 0;#P hidden connect 118 0 113 0;#P hidden connect 113 0 107 0;#P hidden connect 110 0 103 0;#P hidden connect 108 0 103 0;#P hidden connect 107 0 103 0;#P hidden connect 116 0 103 0;#P hidden connect 101 0 104 0;#P hidden connect 109 0 104 0;#P connect 427 0 350 0;#P hidden connect 350 0 351 1;#P hidden connect 7 0 8 0;#P hidden connect 8 0 13 0;#P hidden connect 13 0 9 0;#P hidden connect 9 0 14 0;#P hidden connect 14 0 6 0;#P hidden connect 205 0 204 0;#P hidden connect 204 0 207 0;#P hidden connect 207 0 208 0;#P hidden connect 208 0 206 0;#P hidden connect 206 0 80 0;#P hidden connect 438 1 80 0;#P hidden connect 80 0 100 0;#P hidden connect 101 0 104 1;#P hidden connect 140 1 346 0;#P hidden connect 138 0 139 0;#P hidden connect 139 0 140 3;#P hidden connect 7 0 10 0;#P hidden connect 10 0 11 0;#P hidden connect 11 0 9 2;#P hidden connect 13 1 12 0;#P hidden connect 12 0 14 1;#P hidden connect 346 0 345 0;#P connect 425 0 348 0;#P hidden connect 348 0 100 1;#P hidden connect 356 0 350 1;#P hidden connect 140 0 112 0;#P hidden connect 112 0 126 0;#P hidden connect 125 0 116 0;#P hidden connect 126 0 116 0;#P hidden connect 95 0 205 1;#P connect 427 0 203 0;#P hidden connect 203 0 204 1;#P hidden connect 122 0 103 3;#P hidden connect 126 1 116 1;#P hidden connect 335 1 142 0;#P hidden connect 57 0 348 1;#P hidden connect 142 0 111 0;#P hidden connect 120 0 111 0;#P hidden connect 127 0 111 0;#P hidden connect 111 0 125 0;#P hidden connect 125 0 117 0;#P hidden connect 112 0 117 0;#P hidden connect 117 0 116 2;#P hidden connect 95 0 203 1;#P hidden connect 125 1 117 1;#P hidden connect 119 0 120 0;#P hidden connect 79 0 95 0;#P hidden connect 345 0 95 0;#P connect 417 0 98 0;#P hidden connect 119 0 124 0;#P hidden connect 124 0 122 0;#P hidden connect 185 0 79 0;#P hidden connect 57 0 98 1;#P hidden connect 79 0 57 0;#P hidden connect 79 0 184 0;#P hidden fasten 31 0 35 0 108 772 -31 772;#P hidden connect 35 0 32 0;#P hidden connect 32 0 36 0;#P hidden connect 36 0 37 0;#P hidden connect 37 0 38 0;#P hidden connect 38 0 39 0;#P hidden connect 37 0 38 1;#P hidden connect 56 0 326 0;#P hidden connect 326 0 327 0;#P hidden connect 79 0 424 0;#P hidden connect 48 0 49 0;#P hidden connect 49 0 99 0;#P hidden connect 46 0 45 0;#P hidden connect 99 0 45 0;#P hidden connect 438 4 45 0;#P connect 415 0 425 0;#P connect 415 0 427 0;#P connect 415 0 426 0;#P hidden connect 37 0 51 0;#P hidden connect 51 0 50 0;#P hidden connect 50 0 49 1;#P hidden connect 98 0 99 1;#P hidden connect 79 0 437 0;#P hidden connect 324 0 325 0;#P hidden connect 325 0 326 3;#P hidden connect 79 0 337 0;#P hidden connect 162 0 48 1;#P connect 415 0 419 0;#P connect 422 0 415 0;#P connect 415 0 416 0;#P connect 416 0 417 0;#P connect 419 0 421 0;#P connect 420 0 31 0;#P connect 417 0 418 0;#P connect 415 0 416 1;#P hidden connect 47 0 46 0;#P connect 419 0 420 0;#P hidden connect 337 0 31 1;#P hidden connect 199 0 335 0;#P hidden connect 61 0 40 0;#P hidden connect 40 0 41 0;#P hidden connect 438 5 52 0;#P hidden connect 46 0 52 0;#P hidden connect 41 0 52 0;#P hidden connect 52 0 342 0;#P hidden connect 342 0 33 0;#P hidden connect 34 0 33 0;#P hidden connect 45 0 33 0;#P hidden connect 201 0 202 0;#P hidden connect 342 0 33 1;#P hidden connect 201 0 358 0;#P hidden connect 31 0 63 0;#P hidden connect 63 0 62 0;#P hidden connect 62 0 60 0;#P hidden connect 60 0 58 0;#P hidden connect 58 0 59 0;#P hidden connect 59 0 61 0;#P hidden fasten 31 0 42 0 108 772 239 772;#P hidden connect 42 0 44 0;#P hidden connect 44 0 43 0;#P hidden connect 43 0 41 1;#P hidden connect 434 0 433 0;#P hidden connect 341 0 342 1;#P hidden connect 431 0 434 0;#P hidden connect 323 0 328 0;#P hidden connect 162 0 40 1;#P hidden connect 199 0 323 0;#P hidden connect 430 0 432 0;#P hidden connect 433 0 430 0;#P hidden connect 196 0 198 0;#P hidden connect 198 0 200 0;#P hidden connect 200 0 197 0;#P hidden connect 197 0 199 0;#P hidden connect 327 0 323 1;#P hidden connect 163 0 162 0;#P hidden connect 344 0 343 0;#P hidden connect 343 0 341 1;#P connect 438 5 439 0;#P hidden connect 188 0 189 0;#P hidden connect 189 0 194 0;#P hidden connect 194 0 190 0;#P hidden connect 190 0 195 0;#P hidden connect 195 0 187 0;#P hidden connect 431 0 430 1;#P connect 420 0 64 0;#P hidden connect 188 0 191 0;#P hidden connect 191 0 192 0;#P hidden connect 192 0 190 2;#P hidden connect 202 0 196 1;#P hidden connect 194 1 193 0;#P hidden connect 193 0 195 1;#P hidden connect 79 0 81 0;#P hidden connect 81 0 64 1;#P hidden connect 64 0 75 0;#P hidden connect 75 0 74 0;#P hidden connect 74 0 72 0;#P hidden connect 72 0 70 0;#P hidden connect 70 0 71 0;#P hidden connect 71 0 73 0;#P hidden connect 340 0 77 0;#P hidden connect 438 6 77 0;#P hidden connect 73 0 65 0;#P hidden connect 65 0 66 0;#P hidden connect 77 0 76 0;#P hidden connect 77 0 76 1;#P hidden connect 64 0 67 0;#P hidden connect 67 0 69 0;#P hidden connect 69 0 68 0;#P hidden connect 68 0 66 1;#P hidden connect 141 0 7 0;#P hidden connect 66 0 160 0;#P hidden connect 161 0 340 0;#P hidden connect 160 0 161 0;#P hidden connect 162 0 65 1;#P connect 417 0 82 0;#P hidden connect 159 0 160 1;#P hidden connect 437 0 431 0;#P hidden connect 424 0 422 0;#P hidden connect 432 0 422 0;#P hidden connect 165 0 164 0;#P hidden connect 158 0 94 0;#P hidden connect 94 0 82 1;#P hidden connect 82 0 93 0;#P hidden connect 93 0 92 0;#P hidden connect 92 0 90 0;#P hidden connect 90 0 88 0;#P hidden connect 88 0 89 0;#P hidden connect 89 0 91 0;#P hidden connect 164 0 159 1;#P hidden connect 358 0 141 0;#P hidden connect 84 0 97 0;#P hidden connect 438 7 97 0;#P hidden connect 97 0 96 0;#P hidden connect 91 0 83 0;#P hidden connect 83 0 84 0;#P hidden connect 97 0 96 1;#P connect 417 0 143 0;#P hidden connect 82 0 85 0;#P hidden connect 85 0 87 0;#P hidden connect 87 0 86 0;#P hidden connect 86 0 84 1;#P hidden connect 339 0 338 0;#P hidden connect 162 0 83 1;#P hidden connect 158 0 155 0;#P connect 440 0 438 0;#P hidden connect 361 0 373 0;#P hidden connect 373 0 374 0;#P hidden connect 374 0 363 0;#P hidden connect 442 1 440 0;#P hidden connect 155 0 143 1;#P hidden connect 375 0 376 0;#P hidden connect 143 0 154 0;#P hidden connect 154 0 153 0;#P hidden connect 153 0 151 0;#P hidden connect 151 0 149 0;#P hidden connect 149 0 150 0;#P hidden connect 150 0 152 0;#P hidden connect 359 0 357 0;#P hidden connect 164 0 339 1;#P hidden connect 145 0 157 0;#P hidden connect 438 8 157 0;#P hidden connect 157 0 156 0;#P hidden connect 152 0 144 0;#P hidden connect 144 0 145 0;#P hidden connect 157 0 156 1;#P hidden connect 143 0 146 0;#P hidden connect 146 0 148 0;#P hidden connect 148 0 147 0;#P hidden connect 147 0 145 1;#P hidden connect 376 0 361 1;#P connect 418 0 329 0;#P hidden connect 329 0 331 0;#P hidden connect 328 0 166 0;#P hidden connect 331 0 333 0;#P hidden connect 162 0 144 1;#P hidden connect 334 0 330 0;#P hidden connect 338 0 331 1;#P hidden connect 158 0 178 0;#P hidden connect 378 0 210 0;#P hidden connect 210 0 209 0;#P hidden connect 181 0 378 0;#P hidden connect 166 0 177 0;#P hidden connect 177 0 176 0;#P hidden connect 176 0 174 0;#P hidden connect 174 0 172 0;#P hidden connect 172 0 173 0;#P hidden connect 173 0 175 0;#P hidden connect 178 0 166 1;#P hidden connect 330 0 329 1;#P hidden connect 158 0 182 0;#P hidden connect 183 0 332 0;#P connect 419 0 181 0;#P hidden connect 377 0 180 0;#P hidden connect 438 9 180 0;#P hidden connect 180 0 179 0;#P hidden connect 175 0 167 0;#P hidden connect 167 0 168 0;#P hidden connect 168 0 183 0;#P hidden connect 357 0 316 0;#P hidden connect 333 0 332 1;#P hidden connect 180 0 179 1;#P hidden connect 166 0 169 0;#P hidden connect 169 0 171 0;#P hidden connect 171 0 170 0;#P hidden connect 170 0 168 1;#P hidden connect 209 0 183 1;#P hidden connect 233 0 244 0;#P hidden connect 332 0 377 0;#P connect 415 0 233 0;#P hidden connect 182 0 181 1;#P hidden connect 363 0 377 1;#P hidden connect 245 0 233 1;#P hidden connect 248 0 252 0;#P hidden connect 252 0 251 0;#P hidden connect 244 0 243 0;#P hidden connect 243 0 241 0;#P hidden connect 241 0 239 0;#P hidden connect 239 0 240 0;#P hidden connect 240 0 242 0;#P hidden connect 254 0 245 0;#P hidden connect 253 0 252 1;#P hidden connect 250 0 247 0;#P hidden connect 438 10 247 0;#P hidden connect 247 0 246 0;#P connect 421 0 248 0;#P hidden connect 242 0 234 0;#P hidden connect 234 0 235 0;#P hidden connect 235 0 250 0;#P hidden connect 247 0 246 1;#P hidden connect 233 0 236 0;#P hidden connect 236 0 238 0;#P hidden connect 238 0 237 0;#P hidden connect 237 0 235 1;#P hidden connect 251 0 250 1;#P hidden connect 357 0 311 0;#P hidden connect 357 0 315 0;#P hidden connect 254 0 249 0;#P hidden connect 249 0 248 1;#P hidden connect 233 0 385 0;#P hidden connect 385 0 384 0;#P hidden connect 384 0 382 0;#P hidden connect 382 0 380 0;#P hidden connect 380 0 381 0;#P hidden connect 381 0 383 0;#P hidden connect 360 0 359 0;#P hidden connect 396 0 395 0;#P hidden connect 379 0 386 0;#P hidden connect 386 0 396 0;#P hidden connect 438 11 396 0;#P hidden connect 383 0 379 0;#P hidden connect 396 0 395 1;#P hidden connect 387 0 386 1;#P hidden connect 262 0 264 0;#P hidden connect 394 0 388 0;#P hidden connect 249 0 379 1;#P hidden connect 266 0 265 0;#P hidden connect 277 0 264 1;#P hidden connect 388 0 387 0;#P hidden connect 266 0 267 0;#P hidden connect 265 0 264 2;#P hidden connect 309 0 310 0;#P hidden connect 267 0 264 3;#P hidden connect 310 0 308 0;#P hidden connect 313 0 308 0;#P hidden connect 389 0 387 2;#P hidden connect 266 0 268 0;#P hidden connect 268 0 264 4;#P hidden connect 390 0 389 0;#P hidden fasten 318 0 314 0 1243 122 1221 122;#P hidden fasten 317 0 314 0 1243 272 1221 272;#P hidden fasten 312 0 314 0 1243 447 1221 447;#P hidden fasten 316 0 318 0 1243 99;#P hidden connect 315 0 317 0;#P hidden connect 311 0 312 0;#P hidden connect 233 0 392 0;#P hidden connect 392 0 391 0;#P hidden connect 391 0 393 0;#P hidden connect 393 0 394 0;#P connect 394 0 428 0;#P connect 428 0 429 0;#P hidden connect 308 7 256 0;#P hidden connect 308 6 256 0;#P hidden connect 308 5 256 0;#P hidden connect 308 4 256 0;#P hidden connect 308 3 256 0;#P hidden connect 308 2 256 0;#P hidden connect 308 1 256 0;#P hidden connect 308 0 256 0;#P hidden connect 256 0 262 0;#P hidden connect 264 0 261 0;#P hidden connect 262 0 261 0;#P hidden connect 438 12 261 0;#P hidden connect 261 0 260 0;#P hidden connect 278 0 260 0;#P connect 394 0 428 1;#P hidden connect 285 0 279 0;#P hidden connect 286 0 279 0;#P hidden connect 261 0 260 1;#P hidden connect 279 0 256 1;#P hidden connect 257 0 279 1;#P connect 415 0 255 0;#P hidden connect 255 0 269 0;#P hidden connect 365 0 366 0;#P hidden connect 366 0 371 0;#P hidden connect 371 0 367 0;#P hidden connect 367 0 372 0;#P hidden connect 372 0 364 0;#P hidden connect 270 0 257 0;#P hidden connect 257 0 258 0;#P hidden connect 269 0 270 0;#P hidden connect 365 0 368 0;#P hidden connect 368 0 369 0;#P hidden connect 369 0 367 2;#P hidden connect 263 0 259 0;#P hidden connect 371 1 370 0;#P hidden connect 370 0 372 1;#P hidden connect 259 0 255 1;#P hidden connect 283 0 286 0;#P hidden connect 284 0 285 0;#P hidden connect 284 0 287 0;#P hidden connect 283 0 284 0;#P hidden connect 255 0 281 0;#P hidden connect 281 0 280 0;#P hidden connect 280 0 282 0;#P hidden connect 282 0 283 0;#P hidden connect 255 0 275 0;#P hidden connect 275 0 274 0;#P hidden connect 274 0 273 0;#P hidden connect 273 0 271 0;#P hidden connect 271 0 272 0;#P hidden connect 272 0 277 0;#P hidden connect 301 0 303 0;#P hidden connect 300 0 301 0;#P hidden connect 283 0 300 0;#P hidden connect 283 0 320 0;#P hidden connect 283 0 302 0;#P hidden connect 299 0 298 0;#P hidden connect 320 0 319 0;#P hidden connect 303 0 304 0;#P hidden connect 302 0 304 0;#P hidden connect 304 0 297 0;#P hidden connect 297 0 295 0;#P hidden connect 438 13 295 0;#P hidden connect 295 0 294 0;#P hidden connect 319 0 289 0;#P hidden connect 289 0 290 0;#P hidden connect 321 0 319 2;#P hidden connect 295 0 294 1;#P hidden connect 322 0 321 0;#P hidden connect 290 0 304 1;#P hidden connect 288 0 291 0;#P hidden connect 291 0 293 0;#P hidden connect 293 0 292 0;#P hidden connect 292 0 290 1;#P hidden connect 298 0 289 1;#P hidden connect 276 0 296 0;#P hidden connect 296 0 288 1;#P pop;